<?xml version="1.0" encoding="UTF-8" standalone="no"?>
<svg xmlns="http://www.w3.org/2000/svg" width="180" height="50" viewBox="0 0 180 50">
  <defs>
    <linearGradient id="grad1" x1="0%" y1="0%" x2="100%" y2="100%">
      <stop offset="0%" style="stop-color:#1D6CEB;stop-opacity:1" />
      <stop offset="100%" style="stop-color:#00C9DB;stop-opacity:1" />
    </linearGradient>
    <linearGradient id="grad2" x1="0%" y1="0%" x2="100%" y2="0%">
      <stop offset="0%" style="stop-color:#1D6CEB;stop-opacity:1" />
      <stop offset="100%" style="stop-color:#00C9DB;stop-opacity:1" />
    </linearGradient>
  </defs>

  <!-- Container icon -->
  <g transform="translate(2, 6)">
    <rect x="0" y="0" width="26" height="30" rx="3" fill="none" stroke="url(#grad1)" stroke-width="2"/>
    <rect x="3" y="4" width="20" height="4" rx="1" fill="url(#grad1)" opacity="0.3"/>
    <rect x="3" y="10" width="15" height="4" rx="1" fill="url(#grad1)" opacity="0.5"/>
    <rect x="3" y="16" width="18" height="4" rx="1" fill="url(#grad1)" opacity="0.7"/>
    <rect x="3" y="22" width="12" height="4" rx="1" fill="url(#grad1)" opacity="0.9"/>
  </g>

  <!-- K8s helm wheel -->
  <g transform="translate(38, 6)">
    <circle cx="12" cy="15" r="12" fill="none" stroke="url(#grad1)" stroke-width="2"/>
    <circle cx="12" cy="15" r="4" fill="url(#grad1)"/>
    <line x1="12" y1="3" x2="12" y2="0" stroke="url(#grad1)" stroke-width="2.5" stroke-linecap="round"/>
    <line x1="12" y1="27" x2="12" y2="30" stroke="url(#grad1)" stroke-width="2.5" stroke-linecap="round"/>
    <line x1="0" y1="15" x2="-3" y2="15" stroke="url(#grad1)" stroke-width="2.5" stroke-linecap="round"/>
    <line x1="24" y1="15" x2="27" y2="15" stroke="url(#grad1)" stroke-width="2.5" stroke-linecap="round"/>
    <line x1="3.5" y1="6.5" x2="1.5" y2="4.5" stroke="url(#grad1)" stroke-width="2.5" stroke-linecap="round"/>
    <line x1="20.5" y1="23.5" x2="22.5" y2="25.5" stroke="url(#grad1)" stroke-width="2.5" stroke-linecap="round"/>
    <line x1="20.5" y1="6.5" x2="22.5" y2="4.5" stroke="url(#grad1)" stroke-width="2.5" stroke-linecap="round"/>
    <line x1="3.5" y1="23.5" x2="1.5" y2="25.5" stroke="url(#grad1)" stroke-width="2.5" stroke-linecap="round"/>
  </g>

  <!-- Text -->
  <text x="75" y="22" font-family="Arial, Helvetica, sans-serif" font-size="16" font-weight="bold" fill="url(#grad2)">XInfra</text>
  <text x="75" y="40" font-family="Arial, Helvetica, sans-serif" font-size="11" font-weight="600" fill="#00C9DB">K8s</text>
</svg>
