<?xml version="1.0" encoding="UTF-8" standalone="no"?>
<svg xmlns="http://www.w3.org/2000/svg" width="300" height="100" viewBox="0 0 300 100">
  <defs>
    <linearGradient id="grad1" x1="0%" y1="0%" x2="100%" y2="100%">
      <stop offset="0%" style="stop-color:#1D6CEB;stop-opacity:1" />
      <stop offset="100%" style="stop-color:#00C9DB;stop-opacity:1" />
    </linearGradient>
    <linearGradient id="grad2" x1="0%" y1="0%" x2="100%" y2="0%">
      <stop offset="0%" style="stop-color:#1D6CEB;stop-opacity:1" />
      <stop offset="100%" style="stop-color:#00C9DB;stop-opacity:1" />
    </linearGradient>
  </defs>

  <!-- Container icon -->
  <g transform="translate(8, 14)">
    <rect x="0" y="0" width="52" height="58" rx="5" fill="none" stroke="url(#grad1)" stroke-width="4"/>
    <rect x="6" y="7" width="40" height="9" rx="2" fill="url(#grad1)" opacity="0.3"/>
    <rect x="6" y="20" width="30" height="9" rx="2" fill="url(#grad1)" opacity="0.5"/>
    <rect x="6" y="33" width="36" height="9" rx="2" fill="url(#grad1)" opacity="0.7"/>
    <rect x="6" y="46" width="24" height="7" rx="2" fill="url(#grad1)" opacity="0.9"/>
  </g>

  <!-- K8s helm wheel -->
  <g transform="translate(80, 14)">
    <circle cx="25" cy="29" r="25" fill="none" stroke="url(#grad1)" stroke-width="4"/>
    <circle cx="25" cy="29" r="8" fill="url(#grad1)"/>
    <line x1="25" y1="4" x2="25" y2="-2" stroke="url(#grad1)" stroke-width="4" stroke-linecap="round"/>
    <line x1="25" y1="54" x2="25" y2="60" stroke="url(#grad1)" stroke-width="4" stroke-linecap="round"/>
    <line x1="0" y1="29" x2="-6" y2="29" stroke="url(#grad1)" stroke-width="4" stroke-linecap="round"/>
    <line x1="50" y1="29" x2="56" y2="29" stroke="url(#grad1)" stroke-width="4" stroke-linecap="round"/>
    <line x1="7.3" y1="11.3" x2="3" y2="7" stroke="url(#grad1)" stroke-width="4" stroke-linecap="round"/>
    <line x1="42.7" y1="46.7" x2="47" y2="51" stroke="url(#grad1)" stroke-width="4" stroke-linecap="round"/>
    <line x1="42.7" y1="11.3" x2="47" y2="7" stroke="url(#grad1)" stroke-width="4" stroke-linecap="round"/>
    <line x1="7.3" y1="46.7" x2="3" y2="51" stroke="url(#grad1)" stroke-width="4" stroke-linecap="round"/>
  </g>

  <!-- Text -->
  <text x="152" y="46" font-family="Arial, Helvetica, sans-serif" font-size="28" font-weight="bold" fill="url(#grad2)">XInfra</text>
  <text x="152" y="76" font-family="Arial, Helvetica, sans-serif" font-size="16" font-weight="600" fill="#00C9DB">K8s</text>
</svg>
