<?xml version="1.0" encoding="UTF-8" standalone="no"?>
<svg xmlns="http://www.w3.org/2000/svg" width="200" height="120" viewBox="0 0 200 120">
  <defs>
    <linearGradient id="grad1" x1="0%" y1="0%" x2="100%" y2="100%">
      <stop offset="0%" style="stop-color:#1D6CEB;stop-opacity:1" />
      <stop offset="100%" style="stop-color:#00C9DB;stop-opacity:1" />
    </linearGradient>
  </defs>
  <!-- Container box outline -->
  <rect x="20" y="28" width="56" height="56" rx="6" fill="none" stroke="url(#grad1)" stroke-width="4"/>
  <!-- Container layers -->
  <rect x="26" y="36" width="44" height="10" rx="2" fill="url(#grad1)" opacity="0.3"/>
  <rect x="26" y="50" width="32" height="10" rx="2" fill="url(#grad1)" opacity="0.5"/>
  <rect x="26" y="64" width="40" height="10" rx="2" fill="url(#grad1)" opacity="0.7"/>
  <!-- K8s helm wheel -->
  <circle cx="116" cy="56" r="24" fill="none" stroke="url(#grad1)" stroke-width="4"/>
  <circle cx="116" cy="56" r="8" fill="url(#grad1)"/>
  <!-- K8s spokes -->
  <line x1="116" y1="32" x2="116" y2="24" stroke="url(#grad1)" stroke-width="4" stroke-linecap="round"/>
  <line x1="116" y1="80" x2="116" y2="88" stroke="url(#grad1)" stroke-width="4" stroke-linecap="round"/>
  <line x1="92" y1="56" x2="84" y2="56" stroke="url(#grad1)" stroke-width="4" stroke-linecap="round"/>
  <line x1="140" y1="56" x2="148" y2="56" stroke="url(#grad1)" stroke-width="4" stroke-linecap="round"/>
  <line x1="99" y1="39" x2="93" y2="33" stroke="url(#grad1)" stroke-width="4" stroke-linecap="round"/>
  <line x1="133" y1="73" x2="139" y2="79" stroke="url(#grad1)" stroke-width="4" stroke-linecap="round"/>
  <line x1="133" y1="39" x2="139" y2="33" stroke="url(#grad1)" stroke-width="4" stroke-linecap="round"/>
  <line x1="99" y1="73" x2="93" y2="79" stroke="url(#grad1)" stroke-width="4" stroke-linecap="round"/>
  <!-- Text -->
  <text x="160" y="48" font-family="Arial, Helvetica, sans-serif" font-size="20" font-weight="bold" fill="#1D6CEB">XInfra</text>
  <text x="160" y="74" font-family="Arial, Helvetica, sans-serif" font-size="20" font-weight="bold" fill="#00C9DB">K8s</text>
</svg>
